<svg xmlns="http://www.w3.org/2000/svg" viewBox="0 0 64 64" fill="none">
  <rect width="64" height="64" rx="18" fill="#0F172A"/>
  <path d="M18 44V20h8.5c3.067 0 5.467.733 7.2 2.2 1.733 1.467 2.6 3.5 2.6 6.1 0 1.733-.4 3.25-1.2 4.55-.767 1.267-1.933 2.233-3.5 2.9L38.8 44H32l-6-7.2H24V44h-6Zm6-12h2.1c1.467 0 2.567-.317 3.3-.95.767-.667 1.15-1.617 1.15-2.85 0-1.233-.383-2.15-1.15-2.75-.733-.633-1.833-.95-3.3-.95H24v7.5Z" fill="#22D3EE"/>
  <path d="M40 20h6v24h-6V20Zm-4 12c0-3.733 1.267-6.767 3.8-9.1C42.367 20.567 45.6 19.4 49.5 19.4c3.9 0 7.117 1.167 9.65 3.5C61.683 25.233 62.95 28.267 62.95 32c0 3.733-1.267 6.783-3.8 9.15-2.533 2.333-5.75 3.5-9.65 3.5-3.9 0-7.133-1.167-9.7-3.5C37.267 38.783 36 35.733 36 32Zm6.2 0c0 2 .667 3.65 2 4.95 1.333 1.267 3.1 1.9 5.3 1.9 2.2 0 3.95-.633 5.25-1.9 1.333-1.3 2-2.95 2-4.95s-.667-3.633-2-4.9c-1.3-1.3-3.05-1.95-5.25-1.95-2.2 0-3.967.65-5.3 1.95-1.333 1.267-2 2.9-2 4.9Z" fill="#E2E8F0"/>
</svg>
